<svg width="310" height="120" viewBox="0 0 310 120" fill="none" xmlns="http://www.w3.org/2000/svg">
<rect y="-0.00012207" width="310" height="120" rx="5" fill="#8D448B"/>
<path d="M92.224 49V36.4H94.528V41.494L99.19 36.4H102.034L97.39 41.404L102.16 49H99.334L95.734 43.168L94.528 44.482V49H92.224ZM104.426 38.686C104.006 38.686 103.658 38.56 103.382 38.308C103.118 38.056 102.986 37.738 102.986 37.354C102.986 36.97 103.118 36.658 103.382 36.418C103.658 36.166 104.006 36.04 104.426 36.04C104.846 36.04 105.188 36.166 105.452 36.418C105.728 36.658 105.866 36.97 105.866 37.354C105.866 37.738 105.728 38.056 105.452 38.308C105.188 38.56 104.846 38.686 104.426 38.686ZM103.274 49V40.072H105.578V49H103.274ZM107.483 49V40.072H109.517L109.697 41.584C109.973 41.056 110.369 40.636 110.885 40.324C111.413 40.012 112.031 39.856 112.739 39.856C113.843 39.856 114.701 40.204 115.312 40.9C115.924 41.596 116.23 42.616 116.23 43.96V49H113.927V44.176C113.927 43.408 113.771 42.82 113.459 42.412C113.147 42.004 112.661 41.8 112.001 41.8C111.353 41.8 110.819 42.028 110.399 42.484C109.991 42.94 109.787 43.576 109.787 44.392V49H107.483ZM127.483 49.216C126.211 49.216 125.119 48.946 124.207 48.406C123.295 47.854 122.593 47.092 122.101 46.12C121.609 45.136 121.363 44.002 121.363 42.718C121.363 41.434 121.609 40.3 122.101 39.316C122.593 38.332 123.295 37.564 124.207 37.012C125.119 36.46 126.211 36.184 127.483 36.184C128.995 36.184 130.231 36.562 131.191 37.318C132.163 38.062 132.769 39.112 133.009 40.468H130.471C130.315 39.784 129.979 39.25 129.463 38.866C128.959 38.47 128.287 38.272 127.447 38.272C126.283 38.272 125.371 38.668 124.711 39.46C124.051 40.252 123.721 41.338 123.721 42.718C123.721 44.098 124.051 45.184 124.711 45.976C125.371 46.756 126.283 47.146 127.447 47.146C128.287 47.146 128.959 46.966 129.463 46.606C129.979 46.234 130.315 45.724 130.471 45.076H133.009C132.769 46.372 132.163 47.386 131.191 48.118C130.231 48.85 128.995 49.216 127.483 49.216ZM138.778 49.216C137.914 49.216 137.134 49.018 136.438 48.622C135.754 48.226 135.208 47.68 134.8 46.984C134.404 46.276 134.206 45.46 134.206 44.536C134.206 43.612 134.41 42.802 134.818 42.106C135.226 41.398 135.772 40.846 136.456 40.45C137.152 40.054 137.932 39.856 138.796 39.856C139.648 39.856 140.416 40.054 141.1 40.45C141.796 40.846 142.342 41.398 142.738 42.106C143.146 42.802 143.35 43.612 143.35 44.536C143.35 45.46 143.146 46.276 142.738 46.984C142.342 47.68 141.796 48.226 141.1 48.622C140.404 49.018 139.63 49.216 138.778 49.216ZM138.778 47.218C139.378 47.218 139.9 46.996 140.344 46.552C140.788 46.096 141.01 45.424 141.01 44.536C141.01 43.648 140.788 42.982 140.344 42.538C139.9 42.082 139.384 41.854 138.796 41.854C138.184 41.854 137.656 42.082 137.212 42.538C136.78 42.982 136.564 43.648 136.564 44.536C136.564 45.424 136.78 46.096 137.212 46.552C137.656 46.996 138.178 47.218 138.778 47.218ZM146.34 49L143.73 40.072H146.016L147.564 46.498L149.364 40.072H151.92L153.72 46.498L155.286 40.072H157.572L154.944 49H152.55L150.642 42.322L148.734 49H146.34ZM162.493 49.216C161.629 49.216 160.849 49.018 160.153 48.622C159.469 48.226 158.923 47.68 158.515 46.984C158.119 46.276 157.921 45.46 157.921 44.536C157.921 43.612 158.125 42.802 158.533 42.106C158.941 41.398 159.487 40.846 160.171 40.45C160.867 40.054 161.647 39.856 162.511 39.856C163.363 39.856 164.131 40.054 164.815 40.45C165.511 40.846 166.057 41.398 166.453 42.106C166.861 42.802 167.065 43.612 167.065 44.536C167.065 45.46 166.861 46.276 166.453 46.984C166.057 47.68 165.511 48.226 164.815 48.622C164.119 49.018 163.345 49.216 162.493 49.216ZM162.493 47.218C163.093 47.218 163.615 46.996 164.059 46.552C164.503 46.096 164.725 45.424 164.725 44.536C164.725 43.648 164.503 42.982 164.059 42.538C163.615 42.082 163.099 41.854 162.511 41.854C161.899 41.854 161.371 42.082 160.927 42.538C160.495 42.982 160.279 43.648 160.279 44.536C160.279 45.424 160.495 46.096 160.927 46.552C161.371 46.996 161.893 47.218 162.493 47.218ZM168.625 49V40.072H170.677L170.893 41.746C171.217 41.17 171.655 40.714 172.207 40.378C172.771 40.03 173.431 39.856 174.187 39.856V42.286H173.539C173.035 42.286 172.585 42.364 172.189 42.52C171.793 42.676 171.481 42.946 171.253 43.33C171.037 43.714 170.929 44.248 170.929 44.932V49H168.625ZM175.262 49V36.04H177.566V43.69L180.734 40.072H183.47L179.816 44.14L184.064 49H181.184L177.566 44.518V49H175.262ZM186.234 38.686C185.814 38.686 185.466 38.56 185.19 38.308C184.926 38.056 184.794 37.738 184.794 37.354C184.794 36.97 184.926 36.658 185.19 36.418C185.466 36.166 185.814 36.04 186.234 36.04C186.654 36.04 186.996 36.166 187.26 36.418C187.536 36.658 187.674 36.97 187.674 37.354C187.674 37.738 187.536 38.056 187.26 38.308C186.996 38.56 186.654 38.686 186.234 38.686ZM185.082 49V40.072H187.386V49H185.082ZM189.291 49V40.072H191.325L191.505 41.584C191.781 41.056 192.177 40.636 192.693 40.324C193.221 40.012 193.839 39.856 194.547 39.856C195.651 39.856 196.509 40.204 197.121 40.9C197.733 41.596 198.039 42.616 198.039 43.96V49H195.735V44.176C195.735 43.408 195.579 42.82 195.267 42.412C194.955 42.004 194.469 41.8 193.809 41.8C193.161 41.8 192.627 42.028 192.207 42.484C191.799 42.94 191.595 43.576 191.595 44.392V49H189.291ZM203.522 46.336C203.09 46.336 202.688 46.288 202.316 46.192L201.65 46.858C201.854 46.966 202.13 47.056 202.478 47.128C202.826 47.2 203.39 47.272 204.17 47.344C205.358 47.452 206.222 47.734 206.762 48.19C207.302 48.646 207.572 49.276 207.572 50.08C207.572 50.608 207.428 51.106 207.14 51.574C206.852 52.054 206.408 52.438 205.808 52.726C205.208 53.026 204.44 53.176 203.504 53.176C202.232 53.176 201.206 52.936 200.426 52.456C199.646 51.988 199.256 51.28 199.256 50.332C199.256 49.528 199.646 48.832 200.426 48.244C200.186 48.136 199.976 48.022 199.796 47.902C199.628 47.782 199.478 47.656 199.346 47.524V47.11L200.912 45.454C200.216 44.842 199.868 44.056 199.868 43.096C199.868 42.496 200.012 41.95 200.3 41.458C200.6 40.966 201.02 40.576 201.56 40.288C202.1 40 202.754 39.856 203.522 39.856C204.026 39.856 204.494 39.928 204.926 40.072H208.31V41.476L206.78 41.584C207.02 42.04 207.14 42.544 207.14 43.096C207.14 43.696 206.996 44.242 206.708 44.734C206.42 45.226 206 45.616 205.448 45.904C204.908 46.192 204.266 46.336 203.522 46.336ZM203.522 44.572C203.99 44.572 204.374 44.446 204.674 44.194C204.986 43.942 205.142 43.582 205.142 43.114C205.142 42.646 204.986 42.286 204.674 42.034C204.374 41.782 203.99 41.656 203.522 41.656C203.03 41.656 202.634 41.782 202.334 42.034C202.034 42.286 201.884 42.646 201.884 43.114C201.884 43.582 202.034 43.942 202.334 44.194C202.634 44.446 203.03 44.572 203.522 44.572ZM201.362 50.098C201.362 50.542 201.566 50.872 201.974 51.088C202.394 51.316 202.904 51.43 203.504 51.43C204.08 51.43 204.548 51.31 204.908 51.07C205.268 50.842 205.448 50.53 205.448 50.134C205.448 49.81 205.328 49.54 205.088 49.324C204.86 49.108 204.398 48.976 203.702 48.928C203.21 48.892 202.754 48.838 202.334 48.766C201.986 48.958 201.734 49.168 201.578 49.396C201.434 49.624 201.362 49.858 201.362 50.098ZM217.635 49.216C216.711 49.216 215.895 49.06 215.187 48.748C214.479 48.424 213.921 47.968 213.513 47.38C213.105 46.78 212.895 46.054 212.883 45.202H215.313C215.337 45.79 215.547 46.288 215.943 46.696C216.351 47.092 216.909 47.29 217.617 47.29C218.229 47.29 218.715 47.146 219.075 46.858C219.435 46.558 219.615 46.162 219.615 45.67C219.615 45.154 219.453 44.752 219.129 44.464C218.817 44.176 218.397 43.942 217.869 43.762C217.341 43.582 216.777 43.39 216.177 43.186C215.205 42.85 214.461 42.418 213.945 41.89C213.441 41.362 213.189 40.66 213.189 39.784C213.177 39.04 213.351 38.404 213.711 37.876C214.083 37.336 214.587 36.922 215.223 36.634C215.859 36.334 216.591 36.184 217.419 36.184C218.259 36.184 218.997 36.334 219.633 36.634C220.281 36.934 220.785 37.354 221.145 37.894C221.517 38.434 221.715 39.076 221.739 39.82H219.273C219.261 39.376 219.087 38.986 218.751 38.65C218.427 38.302 217.971 38.128 217.383 38.128C216.879 38.116 216.453 38.242 216.105 38.506C215.769 38.758 215.601 39.13 215.601 39.622C215.601 40.042 215.733 40.378 215.997 40.63C216.261 40.87 216.621 41.074 217.077 41.242C217.533 41.41 218.055 41.59 218.643 41.782C219.267 41.998 219.837 42.25 220.353 42.538C220.869 42.826 221.283 43.21 221.595 43.69C221.907 44.158 222.063 44.764 222.063 45.508C222.063 46.168 221.895 46.78 221.559 47.344C221.223 47.908 220.725 48.364 220.065 48.712C219.405 49.048 218.595 49.216 217.635 49.216ZM223.52 52.96V40.072H225.572L225.824 41.35C226.112 40.954 226.49 40.606 226.958 40.306C227.438 40.006 228.056 39.856 228.812 39.856C229.652 39.856 230.402 40.06 231.062 40.468C231.722 40.876 232.244 41.434 232.628 42.142C233.012 42.85 233.204 43.654 233.204 44.554C233.204 45.454 233.012 46.258 232.628 46.966C232.244 47.662 231.722 48.214 231.062 48.622C230.402 49.018 229.652 49.216 228.812 49.216C228.14 49.216 227.552 49.09 227.048 48.838C226.544 48.586 226.136 48.232 225.824 47.776V52.96H223.52ZM228.326 47.2C229.058 47.2 229.664 46.954 230.144 46.462C230.624 45.97 230.864 45.334 230.864 44.554C230.864 43.774 230.624 43.132 230.144 42.628C229.664 42.124 229.058 41.872 228.326 41.872C227.582 41.872 226.97 42.124 226.49 42.628C226.022 43.12 225.788 43.756 225.788 44.536C225.788 45.316 226.022 45.958 226.49 46.462C226.97 46.954 227.582 47.2 228.326 47.2ZM237.84 49.216C237.072 49.216 236.442 49.096 235.95 48.856C235.458 48.604 235.092 48.274 234.852 47.866C234.612 47.458 234.492 47.008 234.492 46.516C234.492 45.688 234.816 45.016 235.464 44.5C236.112 43.984 237.084 43.726 238.38 43.726H240.648V43.51C240.648 42.898 240.474 42.448 240.126 42.16C239.778 41.872 239.346 41.728 238.83 41.728C238.362 41.728 237.954 41.842 237.606 42.07C237.258 42.286 237.042 42.61 236.958 43.042H234.708C234.768 42.394 234.984 41.83 235.356 41.35C235.74 40.87 236.232 40.504 236.832 40.252C237.432 39.988 238.104 39.856 238.848 39.856C240.12 39.856 241.122 40.174 241.854 40.81C242.586 41.446 242.952 42.346 242.952 43.51V49H240.99L240.774 47.56C240.51 48.04 240.138 48.436 239.658 48.748C239.19 49.06 238.584 49.216 237.84 49.216ZM238.362 47.416C239.022 47.416 239.532 47.2 239.892 46.768C240.264 46.336 240.498 45.802 240.594 45.166H238.632C238.02 45.166 237.582 45.28 237.318 45.508C237.054 45.724 236.922 45.994 236.922 46.318C236.922 46.666 237.054 46.936 237.318 47.128C237.582 47.32 237.93 47.416 238.362 47.416ZM249.024 49.216C248.112 49.216 247.308 49.018 246.612 48.622C245.916 48.226 245.364 47.674 244.956 46.966C244.56 46.258 244.362 45.448 244.362 44.536C244.362 43.624 244.56 42.814 244.956 42.106C245.364 41.398 245.916 40.846 246.612 40.45C247.308 40.054 248.112 39.856 249.024 39.856C250.164 39.856 251.124 40.156 251.904 40.756C252.684 41.344 253.182 42.16 253.398 43.204H250.968C250.848 42.772 250.608 42.436 250.248 42.196C249.9 41.944 249.486 41.818 249.006 41.818C248.37 41.818 247.83 42.058 247.386 42.538C246.942 43.018 246.72 43.684 246.72 44.536C246.72 45.388 246.942 46.054 247.386 46.534C247.83 47.014 248.37 47.254 249.006 47.254C249.486 47.254 249.9 47.134 250.248 46.894C250.608 46.654 250.848 46.312 250.968 45.868H253.398C253.182 46.876 252.684 47.686 251.904 48.298C251.124 48.91 250.164 49.216 249.024 49.216ZM259.281 49.216C258.381 49.216 257.583 49.024 256.887 48.64C256.191 48.256 255.645 47.716 255.249 47.02C254.853 46.324 254.655 45.52 254.655 44.608C254.655 43.684 254.847 42.862 255.231 42.142C255.627 41.422 256.167 40.864 256.851 40.468C257.547 40.06 258.363 39.856 259.299 39.856C260.175 39.856 260.949 40.048 261.621 40.432C262.293 40.816 262.815 41.344 263.187 42.016C263.571 42.676 263.763 43.414 263.763 44.23C263.763 44.362 263.757 44.5 263.745 44.644C263.745 44.788 263.739 44.938 263.727 45.094H256.941C256.989 45.79 257.229 46.336 257.661 46.732C258.105 47.128 258.639 47.326 259.263 47.326C259.731 47.326 260.121 47.224 260.433 47.02C260.757 46.804 260.997 46.528 261.153 46.192H263.493C263.325 46.756 263.043 47.272 262.647 47.74C262.263 48.196 261.783 48.556 261.207 48.82C260.643 49.084 260.001 49.216 259.281 49.216ZM259.299 41.728C258.735 41.728 258.237 41.89 257.805 42.214C257.373 42.526 257.097 43.006 256.977 43.654H261.423C261.387 43.066 261.171 42.598 260.775 42.25C260.379 41.902 259.887 41.728 259.299 41.728Z" fill="white"/>
<path opacity="0.6" d="M96.24 77.9999V75.7599H90.624V74.4159L95.968 66.7999H97.92V74.2879H99.488V75.7599H97.92V77.9999H96.24ZM92.464 74.2879H96.336V68.6719L92.464 74.2879ZM105.709 77.9999V75.7599H100.093V74.4159L105.437 66.7999H107.389V74.2879H108.957V75.7599H107.389V77.9999H105.709ZM101.933 74.2879H105.805V68.6719L101.933 74.2879ZM109.85 77.9999V76.7839C110.575 76.2079 111.268 75.6265 111.93 75.0399C112.591 74.4532 113.178 73.8772 113.69 73.3119C114.212 72.7359 114.623 72.1759 114.922 71.6319C115.22 71.0772 115.37 70.5439 115.37 70.0319C115.37 69.6905 115.311 69.3705 115.194 69.0719C115.076 68.7625 114.884 68.5172 114.618 68.3359C114.351 68.1439 113.994 68.0479 113.546 68.0479C112.874 68.0479 112.367 68.2612 112.026 68.6879C111.695 69.1145 111.535 69.6265 111.546 70.2239H109.898C109.908 69.4345 110.074 68.7732 110.394 68.2399C110.724 67.7065 111.162 67.3012 111.706 67.0239C112.26 66.7465 112.884 66.6079 113.578 66.6079C114.634 66.6079 115.476 66.9065 116.106 67.5039C116.746 68.0905 117.066 68.9119 117.066 69.9679C117.066 70.5972 116.911 71.2212 116.602 71.8399C116.303 72.4585 115.908 73.0559 115.418 73.6319C114.938 74.1972 114.42 74.7305 113.866 75.2319C113.311 75.7332 112.783 76.1865 112.282 76.5919H117.402V77.9999H109.85ZM122.261 77.9999V66.7999H126.485C127.648 66.7999 128.528 67.0719 129.125 67.6159C129.722 68.1599 130.021 68.8425 130.021 69.6639C130.021 70.3785 129.829 70.9492 129.445 71.3759C129.061 71.7919 128.597 72.0745 128.053 72.2239C128.48 72.3092 128.858 72.4799 129.189 72.7359C129.53 72.9919 129.797 73.3119 129.989 73.6959C130.181 74.0799 130.277 74.4959 130.277 74.9439C130.277 75.5199 130.133 76.0425 129.845 76.5119C129.568 76.9705 129.157 77.3332 128.613 77.5999C128.069 77.8665 127.402 77.9999 126.613 77.9999H122.261ZM123.957 71.5999H126.277C126.928 71.5999 127.424 71.4505 127.765 71.1519C128.106 70.8425 128.277 70.4212 128.277 69.8879C128.277 69.3652 128.106 68.9492 127.765 68.6399C127.434 68.3305 126.928 68.1759 126.245 68.1759H123.957V71.5999ZM123.957 76.6079H126.389C127.072 76.6079 127.6 76.4479 127.973 76.1279C128.357 75.8079 128.549 75.3599 128.549 74.7839C128.549 74.2079 128.352 73.7545 127.957 73.4239C127.562 73.0825 127.029 72.9119 126.357 72.9119H123.957V76.6079ZM131.572 77.9999V70.0639H133.092L133.236 71.5679C133.513 71.0452 133.897 70.6345 134.388 70.3359C134.889 70.0265 135.492 69.8719 136.196 69.8719V71.6479H135.732C135.263 71.6479 134.841 71.7279 134.468 71.8879C134.105 72.0372 133.812 72.2985 133.588 72.6719C133.375 73.0345 133.268 73.5412 133.268 74.1919V77.9999H131.572ZM140.643 78.1919C139.886 78.1919 139.203 78.0212 138.595 77.6799C137.998 77.3279 137.523 76.8425 137.171 76.2239C136.819 75.5945 136.643 74.8639 136.643 74.0319C136.643 73.1999 136.819 72.4745 137.171 71.8559C137.534 71.2265 138.019 70.7412 138.627 70.3999C139.235 70.0479 139.913 69.8719 140.659 69.8719C141.417 69.8719 142.094 70.0479 142.691 70.3999C143.299 70.7412 143.779 71.2265 144.131 71.8559C144.494 72.4745 144.675 73.1999 144.675 74.0319C144.675 74.8639 144.494 75.5945 144.131 76.2239C143.779 76.8425 143.299 77.3279 142.691 77.6799C142.083 78.0212 141.401 78.1919 140.643 78.1919ZM140.643 76.7359C141.049 76.7359 141.422 76.6345 141.763 76.4319C142.115 76.2292 142.398 75.9305 142.611 75.5359C142.825 75.1305 142.931 74.6292 142.931 74.0319C142.931 73.4345 142.825 72.9385 142.611 72.5439C142.409 72.1385 142.131 71.8345 141.779 71.6319C141.438 71.4292 141.065 71.3279 140.659 71.3279C140.254 71.3279 139.875 71.4292 139.523 71.6319C139.182 71.8345 138.905 72.1385 138.691 72.5439C138.478 72.9385 138.371 73.4345 138.371 74.0319C138.371 74.6292 138.478 75.1305 138.691 75.5359C138.905 75.9305 139.182 76.2292 139.523 76.4319C139.865 76.6345 140.238 76.7359 140.643 76.7359ZM148.698 78.1919C148.026 78.1919 147.471 78.0799 147.034 77.8559C146.596 77.6319 146.271 77.3385 146.058 76.9759C145.844 76.6025 145.738 76.1972 145.738 75.7599C145.738 74.9919 146.036 74.3839 146.634 73.9359C147.231 73.4879 148.084 73.2639 149.194 73.2639H151.274V73.1199C151.274 72.5012 151.103 72.0372 150.762 71.7279C150.431 71.4185 149.999 71.2639 149.466 71.2639C148.996 71.2639 148.586 71.3812 148.234 71.6159C147.892 71.8399 147.684 72.1759 147.61 72.6239H145.914C145.967 72.0479 146.159 71.5572 146.49 71.1519C146.831 70.7359 147.258 70.4212 147.77 70.2079C148.292 69.9839 148.863 69.8719 149.482 69.8719C150.591 69.8719 151.45 70.1652 152.058 70.7519C152.666 71.3279 152.97 72.1172 152.97 73.1199V77.9999H151.498L151.354 76.6399C151.13 77.0772 150.804 77.4452 150.378 77.7439C149.951 78.0425 149.391 78.1919 148.698 78.1919ZM149.034 76.8159C149.492 76.8159 149.876 76.7092 150.186 76.4959C150.506 76.2719 150.751 75.9785 150.922 75.6159C151.103 75.2532 151.215 74.8532 151.258 74.4159H149.37C148.698 74.4159 148.218 74.5332 147.93 74.7679C147.652 75.0025 147.514 75.2959 147.514 75.6479C147.514 76.0105 147.647 76.2985 147.914 76.5119C148.191 76.7145 148.564 76.8159 149.034 76.8159ZM158.063 78.1919C157.295 78.1919 156.618 78.0105 156.031 77.6479C155.444 77.2852 154.986 76.7892 154.655 76.1599C154.324 75.5305 154.159 74.8159 154.159 74.0159C154.159 73.2159 154.324 72.5065 154.655 71.8879C154.986 71.2585 155.444 70.7679 156.031 70.4159C156.628 70.0532 157.311 69.8719 158.079 69.8719C158.708 69.8719 159.258 69.9945 159.727 70.2399C160.207 70.4852 160.58 70.8319 160.847 71.2799V66.4799H162.543V77.9999H161.023L160.847 76.7679C160.591 77.1412 160.239 77.4719 159.791 77.7599C159.343 78.0479 158.767 78.1919 158.063 78.1919ZM158.367 76.7199C159.092 76.7199 159.684 76.4692 160.143 75.9679C160.612 75.4665 160.847 74.8212 160.847 74.0319C160.847 73.2319 160.612 72.5865 160.143 72.0959C159.684 71.5945 159.092 71.3439 158.367 71.3439C157.642 71.3439 157.044 71.5945 156.575 72.0959C156.106 72.5865 155.871 73.2319 155.871 74.0319C155.871 74.5545 155.978 75.0185 156.191 75.4239C156.404 75.8292 156.698 76.1492 157.071 76.3839C157.455 76.6079 157.887 76.7199 158.367 76.7199ZM165.765 77.9999L163.429 70.0639H165.125L166.661 76.0479L168.389 70.0639H170.277L172.005 76.0479L173.541 70.0639H175.237L172.901 77.9999H171.157L169.333 71.7599L167.509 77.9999H165.765ZM178.463 78.1919C177.791 78.1919 177.236 78.0799 176.799 77.8559C176.362 77.6319 176.036 77.3385 175.823 76.9759C175.61 76.6025 175.503 76.1972 175.503 75.7599C175.503 74.9919 175.802 74.3839 176.399 73.9359C176.996 73.4879 177.85 73.2639 178.959 73.2639H181.039V73.1199C181.039 72.5012 180.868 72.0372 180.527 71.7279C180.196 71.4185 179.764 71.2639 179.231 71.2639C178.762 71.2639 178.351 71.3812 177.999 71.6159C177.658 71.8399 177.45 72.1759 177.375 72.6239H175.679C175.732 72.0479 175.924 71.5572 176.255 71.1519C176.596 70.7359 177.023 70.4212 177.535 70.2079C178.058 69.9839 178.628 69.8719 179.247 69.8719C180.356 69.8719 181.215 70.1652 181.823 70.7519C182.431 71.3279 182.735 72.1172 182.735 73.1199V77.9999H181.263L181.119 76.6399C180.895 77.0772 180.57 77.4452 180.143 77.7439C179.716 78.0425 179.156 78.1919 178.463 78.1919ZM178.799 76.8159C179.258 76.8159 179.642 76.7092 179.951 76.4959C180.271 76.2719 180.516 75.9785 180.687 75.6159C180.868 75.2532 180.98 74.8532 181.023 74.4159H179.135C178.463 74.4159 177.983 74.5332 177.695 74.7679C177.418 75.0025 177.279 75.2959 177.279 75.6479C177.279 76.0105 177.412 76.2985 177.679 76.5119C177.956 76.7145 178.33 76.8159 178.799 76.8159ZM184.891 81.5199L186.795 77.3439H186.331L183.195 70.0639H185.035L187.467 75.9359L190.011 70.0639H191.803L186.683 81.5199H184.891ZM190.722 79.8879L191.65 76.1119H193.33L191.858 79.8879H190.722ZM198.027 77.9999V66.7999H199.723L205.339 75.2319V66.7999H207.035V77.9999H205.339L199.723 69.5679V77.9999H198.027ZM212.456 78.1919C211.677 78.1919 210.984 78.0212 210.376 77.6799C209.779 77.3279 209.309 76.8425 208.968 76.2239C208.627 75.6052 208.456 74.8852 208.456 74.0639C208.456 73.2319 208.621 72.5012 208.952 71.8719C209.293 71.2425 209.763 70.7519 210.36 70.3999C210.968 70.0479 211.672 69.8719 212.472 69.8719C213.251 69.8719 213.928 70.0479 214.504 70.3999C215.08 70.7412 215.528 71.1999 215.848 71.7759C216.168 72.3519 216.328 72.9865 216.328 73.6799C216.328 73.7865 216.323 73.9039 216.312 74.0319C216.312 74.1492 216.307 74.2825 216.296 74.4319H210.12C210.173 75.1999 210.424 75.7865 210.872 76.1919C211.331 76.5865 211.859 76.7839 212.456 76.7839C212.936 76.7839 213.336 76.6772 213.656 76.4639C213.987 76.2399 214.232 75.9412 214.392 75.5679H216.088C215.875 76.3145 215.448 76.9385 214.808 77.4399C214.179 77.9412 213.395 78.1919 212.456 78.1919ZM212.456 71.2639C211.891 71.2639 211.389 71.4345 210.952 71.7759C210.515 72.1065 210.248 72.6079 210.152 73.2799H214.632C214.6 72.6612 214.381 72.1705 213.976 71.8079C213.571 71.4452 213.064 71.2639 212.456 71.2639ZM218.859 77.9999L216.523 70.0639H218.219L219.755 76.0479L221.483 70.0639H223.371L225.099 76.0479L226.635 70.0639H228.331L225.995 77.9999H224.251L222.427 71.7599L220.603 77.9999H218.859ZM235.672 77.9999V73.8719L231.96 66.7999H233.88L236.52 72.2079L239.144 66.7999H241.048L237.368 73.8719V77.9999H235.672ZM244.19 78.1919C243.433 78.1919 242.75 78.0212 242.142 77.6799C241.545 77.3279 241.07 76.8425 240.718 76.2239C240.366 75.5945 240.19 74.8639 240.19 74.0319C240.19 73.1999 240.366 72.4745 240.718 71.8559C241.081 71.2265 241.566 70.7412 242.174 70.3999C242.782 70.0479 243.46 69.8719 244.206 69.8719C244.964 69.8719 245.641 70.0479 246.238 70.3999C246.846 70.7412 247.326 71.2265 247.678 71.8559C248.041 72.4745 248.222 73.1999 248.222 74.0319C248.222 74.8639 248.041 75.5945 247.678 76.2239C247.326 76.8425 246.846 77.3279 246.238 77.6799C245.63 78.0212 244.948 78.1919 244.19 78.1919ZM244.19 76.7359C244.596 76.7359 244.969 76.6345 245.31 76.4319C245.662 76.2292 245.945 75.9305 246.158 75.5359C246.372 75.1305 246.478 74.6292 246.478 74.0319C246.478 73.4345 246.372 72.9385 246.158 72.5439C245.956 72.1385 245.678 71.8345 245.326 71.6319C244.985 71.4292 244.612 71.3279 244.206 71.3279C243.801 71.3279 243.422 71.4292 243.07 71.6319C242.729 71.8345 242.452 72.1385 242.238 72.5439C242.025 72.9385 241.918 73.4345 241.918 74.0319C241.918 74.6292 242.025 75.1305 242.238 75.5359C242.452 75.9305 242.729 76.2292 243.07 76.4319C243.412 76.6345 243.785 76.7359 244.19 76.7359ZM249.556 77.9999V70.0639H251.076L251.22 71.5679C251.498 71.0452 251.882 70.6345 252.372 70.3359C252.874 70.0265 253.476 69.8719 254.18 69.8719V71.6479H253.716C253.247 71.6479 252.826 71.7279 252.452 71.8879C252.09 72.0372 251.796 72.2985 251.572 72.6719C251.359 73.0345 251.252 73.5412 251.252 74.1919V77.9999H249.556ZM255.135 77.9999V66.4799H256.831V73.3439L259.871 70.0639H261.903L258.527 73.6639L262.399 77.9999H260.255L256.831 73.9359V77.9999H255.135Z" fill="white"/>
<circle opacity="0.2" cx="50" cy="60" r="23.5" stroke="white" stroke-width="3"/>
<path d="M71.5 55C66.5 40 56 38.5 51.0006 38.0002L51 35.0001C51 35.0001 58 35.0001 64.5 39.5001C71.5 44.3463 74 52.4999 74.5 55C74.5 55 71.5608 55.1824 71.5 55Z" fill="white"/>
<path d="M59.6161 59.7832L47.1517 52.11C46.6399 51.796 46 52.1919 46 52.82V68.18C46 68.8081 46.6399 69.204 47.1517 68.89L59.6161 61.2168C60.128 60.889 60.128 60.0972 59.6161 59.7832Z" fill="white"/>
</svg>
