<svg width="43" height="36" viewBox="0 0 43 36" fill="none" xmlns="http://www.w3.org/2000/svg">
<path d="M29.155 20.9066C29.8973 21.238 30.6289 21.5645 31.3206 21.9621C32.1819 22.4578 32.8753 23.1749 33.3869 24.011L33.4281 24.0782L33.504 24.0993C35.3731 24.6184 37.1683 25.343 38.8303 26.298C39.1117 26.4603 39.3001 26.7955 39.3001 27.1866V32.7996H34.5001H34.3001V32.9996V35.4996V35.6996H34.5001H40.7501C41.5515 35.6996 42.2001 35.051 42.2001 34.2496V27.1866C42.2002 25.7718 41.4639 24.4662 40.2735 23.7832C36.8826 21.8337 33.0276 20.7259 29.0383 20.4293L28.9417 20.8113C29.0129 20.8432 29.084 20.8749 29.155 20.9066Z" fill="#8D448B" stroke="#8D448B" stroke-width="0.4"/>
<path d="M29.2735 23.7834L29.2735 23.7834C21.3432 19.224 10.6569 19.224 2.72645 23.7834L2.7264 23.7834C1.53509 24.4688 0.8 25.773 0.8 27.1868V34.2498C0.8 35.0512 1.44861 35.6998 2.25001 35.6998H29.7499C30.5513 35.6998 31.1999 35.0512 31.1999 34.2498V27.1856C31.1999 25.773 30.4648 24.4688 29.2735 23.7834ZM28.3 27.1856V32.7998H3.70009V27.1868C3.70009 26.7956 3.88846 26.4605 4.17098 26.2982L4.17102 26.2982C11.2235 22.2443 20.7765 22.2443 27.8291 26.2982L27.8291 26.2982C28.1118 26.4605 28.3 26.7957 28.3 27.1856Z" fill="#8D448B" stroke="#8D448B" stroke-width="0.4"/>
<path d="M26.2113 3.16911L26.2783 3.27022L26.3989 3.2576C26.4695 3.25021 26.5353 3.24185 26.5985 3.23384C26.7386 3.21605 26.8654 3.19997 27.0006 3.19997C30.3363 3.19997 33.0506 5.9144 33.0506 9.24994C33.0506 12.5855 30.3362 15.2999 27.0006 15.2999C26.8659 15.2999 26.7397 15.2838 26.6 15.2661C26.5365 15.258 26.4702 15.2495 26.399 15.2421L26.2784 15.2294L26.2115 15.3306C25.6927 16.1138 25.0558 16.8051 24.3528 17.4368L24.0902 17.6728L24.4276 17.7767C25.2549 18.0315 26.1152 18.1999 27.0006 18.1999C31.9353 18.1999 35.9506 14.1846 35.9506 9.24987C35.9506 4.31516 31.9354 0.299878 27.0006 0.299878C26.1151 0.299878 25.2547 0.468258 24.4275 0.723011L24.0901 0.826905L24.3526 1.06289C25.0557 1.69484 25.6926 2.38583 26.2113 3.16911Z" fill="#8D448B" stroke="#8D448B" stroke-width="0.4"/>
<path d="M16 18.1999C20.9346 18.1999 24.95 14.1846 24.95 9.24988C24.95 4.31517 20.9347 0.299878 16 0.299878C11.0653 0.299878 7.05 4.31517 7.05 9.24988C7.05 14.1846 11.0654 18.1999 16 18.1999ZM16 3.1999C19.3356 3.1999 22.05 5.91433 22.05 9.24988C22.05 12.5854 19.3355 15.2999 16 15.2999C12.6644 15.2999 9.95002 12.5854 9.95002 9.24988C9.95002 5.91434 12.6644 3.1999 16 3.1999Z" fill="#8D448B" stroke="#8D448B" stroke-width="0.4"/>
</svg>
