<svg width="45" height="35" viewBox="0 0 45 35" fill="none" xmlns="http://www.w3.org/2000/svg">
<path d="M7.31557 15.7331C6.3775 16.6711 6.3775 18.1978 7.31557 19.1451C8.25365 20.0832 9.78032 20.0832 10.7276 19.1451C17.2205 12.6521 27.7877 12.6521 34.2806 19.1451C34.7497 19.6141 35.3658 19.8532 35.982 19.8532C36.5982 19.8532 37.2144 19.6141 37.6834 19.1451C38.6215 18.207 38.6215 16.6803 37.6834 15.7331C29.3143 7.35477 15.6847 7.35477 7.31557 15.7331Z" fill="#8D448B"/>
<path d="M13.8274 22.2443C12.8893 23.1824 12.8893 24.709 13.8274 25.6563C14.7655 26.5944 16.2921 26.5944 17.2394 25.6563C20.1364 22.7501 24.8636 22.7501 27.7606 25.6563C28.2296 26.1253 28.8458 26.3645 29.462 26.3645C30.0782 26.3645 30.6943 26.1253 31.1634 25.6563C32.1015 24.7182 32.1015 23.1916 31.1634 22.2535C26.3902 17.462 18.6097 17.462 13.8274 22.2443Z" fill="#8D448B"/>
<path d="M22.4999 34.1175C24.2726 34.1175 25.7096 32.6805 25.7096 30.9078C25.7096 29.1351 24.2726 27.6981 22.4999 27.6981C20.7273 27.6981 19.2902 29.1351 19.2902 30.9078C19.2902 32.6805 20.7273 34.1175 22.4999 34.1175Z" fill="#8D448B"/>
<path d="M44.2964 9.11131C32.2762 -2.89973 12.7238 -2.89973 0.703556 9.11131C-0.234519 10.0494 -0.234519 11.576 0.703556 12.5233C1.64163 13.4614 3.1683 13.4614 4.11557 12.5233C14.2505 2.37924 30.7495 2.37924 40.8936 12.5233C41.3627 12.9924 41.9788 13.2315 42.595 13.2315C43.2112 13.2315 43.8274 12.9924 44.2964 12.5233C45.2345 11.5852 45.2345 10.0586 44.2964 9.11131Z" fill="#8D448B"/>
</svg>
