<svg width="73" height="65" viewBox="0 0 73 65" fill="none" xmlns="http://www.w3.org/2000/svg">
<path d="M51.288 44.3181C37.0486 36.1314 17.8295 36.1314 3.58981 44.3181H51.288ZM51.288 44.3181C53.1876 45.4109 54.3778 47.5039 54.3778 49.791V62.7134C54.3778 63.7011 53.579 64.5 52.5912 64.5H2.2866C1.29882 64.5 0.5 63.7011 0.5 62.7134V49.7933C0.5 47.5038 1.69026 45.411 3.58969 44.3182L51.288 44.3181ZM50.3048 60.9268H50.8048V60.4268V49.791C50.8048 48.8103 50.3295 47.8883 49.5088 47.4169C36.3408 39.8479 18.5373 39.8479 5.36925 47.417C4.54849 47.8885 4.07333 48.8105 4.07333 49.7933V60.4268V60.9268H4.57333H50.3048Z" fill="white" stroke="#020718"/>
<path d="M69.4107 44.3177L69.4111 44.3179C71.3079 45.4062 72.5005 47.5009 72.5004 49.7926V62.7127C72.5004 63.7005 71.7016 64.4993 70.7138 64.4993H59.781V60.9261H68.4272H68.9272V60.4261V49.7926C68.9272 48.81 68.4522 47.8883 67.634 47.4167L67.6335 47.4163C64.5799 45.6617 61.2923 44.3265 57.8786 43.3635C56.8864 41.7965 55.5533 40.4386 53.8965 39.4851L53.8963 39.4849C53.3506 39.1712 52.7921 38.8812 52.2283 38.6058C58.331 39.4173 64.1829 41.312 69.4107 44.3177Z" fill="white" stroke="#020718"/>
<path d="M45.5622 5.04885C45.2596 5.04885 44.9435 5.08853 44.6669 5.12352C43.8729 3.97015 42.951 2.92921 41.9537 1.97119C43.1387 1.6629 44.3424 1.47552 45.5622 1.47552C54.1109 1.47552 61.0683 8.43288 61.0683 16.9816C61.0683 25.5303 54.1108 32.4876 45.5622 32.4876C44.3426 32.4876 43.139 32.3003 41.954 31.992C42.9513 31.034 43.8732 29.9929 44.6671 28.8396C44.9435 28.8747 45.2599 28.9146 45.5622 28.9146C52.142 28.9146 57.4951 23.5615 57.4951 16.9817C57.4951 10.4019 52.1422 5.04885 45.5622 5.04885Z" fill="white" stroke="#020718"/>
<path d="M42.945 16.9818C42.945 25.5306 35.9875 32.4879 27.4389 32.4879C18.8904 32.4879 11.9329 25.5306 11.9329 16.9818C11.9329 8.43314 18.8902 1.47577 27.4389 1.47577C35.9876 1.47577 42.945 8.43314 42.945 16.9818ZM39.3718 16.9818C39.3718 10.4021 34.0189 5.04897 27.4389 5.04897C20.8592 5.04897 15.5061 10.4021 15.5061 16.9818C15.5061 23.5616 20.8592 28.9147 27.4389 28.9147C34.0187 28.9147 39.3718 23.5616 39.3718 16.9818Z" fill="white" stroke="#020718"/>
</svg>
